<svg xmlns:xlink="http://www.w3.org/1999/xlink" width="453.55" xmlns="http://www.w3.org/2000/svg" height="453.54" id="screenshot-8d0d85b0-ee2f-11ec-a602-31d3e7357c9e" viewBox="0 0 453.55 453.54" style="-webkit-print-color-adjust: exact;" fill="none" version="1.1"><g id="shape-8d0d85b0-ee2f-11ec-a602-31d3e7357c9e" rx="0" ry="0" style="fill: rgb(0, 0, 0);"><g id="shape-8d0f3360-ee2f-11ec-a602-31d3e7357c9e"><g id="fills-8d0f3360-ee2f-11ec-a602-31d3e7357c9e"><path class="cls-1" rx="0" ry="0" d="M214.14,197.72C214.14,166.41,192.57,166.07,179.35,166.07L146.65,166.07L124.73,266.96L140.04,266.96C164.39,266.26,183.87,265.96,196.4,253.04C206.83,242.26,214.14,214.77,214.14,197.72ZZ"/></g></g><g id="shape-8d1092f0-ee2f-11ec-a602-31d3e7357c9e"><g id="fills-8d1092f0-ee2f-11ec-a602-31d3e7357c9e"><path class="cls-1" rx="0" ry="0" d="M0,0L0,453.54L341,453.54L453.55,341.01L453.55,0.01ZZM257.63,404.38C249.167,406.921,240.376,408.201,231.54,408.18C184.54,408.18,182.48,367.12,181.09,344.18L179.7,320.18C179,309.39,178.31,295.47,169.61,285.39C160.91,275.31,149.08,274.95,139.34,274.6L123.34,274.6L96.9,397.07L128.9,397.07L127.51,404.38L26.62,404.38L28.36,397.07L58.28,397.07L107.33,166.07L74.63,166.07L76.72,158.76L182.13,158.76C197.13,158.76,208.23,158.76,220.05,162.24C252.05,171.63,254.5,198.77,254.5,208.86C254.692,223.042,249.175,236.707,239.19,246.78C218.32,268.7,182.48,271.13,165.09,272.18C222.84,289.57,224.23,321.23,224.58,358.11L224.58,369.24C224.93,380.37,225.27,385.59,227.36,389.77C229.8,394.99,235.36,399.51,243.71,399.51C247.19,399.51,248.24,399.16,257.63,397.07ZM421.83,341.01L277.93,341.01L277.93,322.28L421.83,322.28ZM421.83,285.78L277.96,286.09L277.96,267.35L421.83,267.35Z"/></g></g></g></svg>